<?xml version="1.0" standalone="no"?><!DOCTYPE svg PUBLIC "-//W3C//DTD SVG 1.1//EN" "http://www.w3.org/Graphics/SVG/1.1/DTD/svg11.dtd"><svg t="1585799757130" class="icon" viewBox="0 0 1024 1024" version="1.1" xmlns="http://www.w3.org/2000/svg" p-id="20570" xmlns:xlink="http://www.w3.org/1999/xlink" width="48" height="48"><defs><style type="text/css"></style></defs><path d="M323.106133 878.216533a59.733333 59.733333 0 0 1-86.698666-62.976l35.874133-208.9984-151.8592-148.002133a59.733333 59.733333 0 0 1 33.109333-101.888l209.851734-30.481067 93.866666-190.1568a59.733333 59.733333 0 0 1 107.1104 0l93.866667 190.122667 209.8176 30.5152a59.733333 59.733333 0 0 1 33.109333 101.888l-151.825066 148.002133 35.84 208.9984a59.733333 59.733333 0 0 1-86.698667 62.976l-187.665067-98.645333-187.6992 98.645333z m199.611734-150.254933l199.611733 104.925867a8.533333 8.533333 0 0 0 12.356267-8.977067l-38.126934-222.276267a25.6 25.6 0 0 1 7.3728-22.664533l161.4848-157.3888a8.533333 8.533333 0 0 0-4.744533-14.574933l-223.1296-32.426667a25.6 25.6 0 0 1-19.285333-13.994667L518.4512 158.378667a8.533333 8.533333 0 0 0-15.291733 0l-99.805867 202.205866a25.6 25.6 0 0 1-19.285333 13.994667l-223.163734 32.426667a8.533333 8.533333 0 0 0-4.744533 14.574933l161.4848 157.3888a25.6 25.6 0 0 1 7.3728 22.664533l-38.126933 222.276267a8.533333 8.533333 0 0 0 12.3904 8.977067l199.611733-104.925867a25.6 25.6 0 0 1 23.825067 0z" p-id="20571" fill="#515151"></path></svg>